<?xml version="1.0" standalone="no"?>
<!DOCTYPE svg PUBLIC "-//W3C//DTD SVG 20010904//EN"
 "http://www.w3.org/TR/2001/REC-SVG-20010904/DTD/svg10.dtd">
<svg version="1.0" xmlns="http://www.w3.org/2000/svg"
 width="600.000000pt" height="600.000000pt" viewBox="0 0 600.000000 600.000000"
 preserveAspectRatio="xMidYMid meet">

<g transform="translate(0.000000,600.000000) scale(0.100000,-0.100000)"
fill="#fff" stroke="none">
<path d="M2840 4500 l0 -300 160 0 160 0 0 300 0 300 -160 0 -160 0 0 -300z"/>
<path d="M1725 4270 l-110 -110 212 -212 212 -212 113 112 112 113 -209 209
c-116 116 -212 210 -215 210 -3 0 -55 -50 -115 -110z"/>
<path d="M3945 4170 l-209 -209 112 -113 113 -112 212 212 212 212 -110 110
c-60 60 -112 110 -115 110 -3 0 -99 -94 -215 -210z"/>
<path d="M2810 3861 c-187 -45 -328 -126 -456 -264 -155 -167 -234 -369 -234
-597 0 -228 79 -430 234 -597 173 -186 395 -283 646 -283 251 0 473 97 646
283 155 167 234 369 234 597 0 228 -79 430 -234 597 -131 141 -286 228 -474
268 -98 20 -266 18 -362 -4z m313 -307 c153 -34 304 -148 375 -281 40 -76 72
-197 72 -273 0 -76 -32 -197 -72 -273 -42 -79 -146 -183 -225 -225 -75 -39
-197 -72 -270 -72 -145 0 -297 64 -404 170 -224 224 -222 581 5 805 138 135
331 191 519 149z"/>
<path d="M1200 3000 l0 -160 300 0 300 0 0 160 0 160 -300 0 -300 0 0 -160z"/>
<path d="M4200 3000 l0 -160 300 0 300 0 0 160 0 160 -300 0 -300 0 0 -160z"/>
<path d="M1825 2050 l-210 -210 113 -112 112 -113 212 212 212 212 -110 110
c-60 61 -111 111 -114 111 -3 0 -100 -95 -215 -210z"/>
<path d="M3846 2149 l-110 -110 212 -212 212 -212 112 113 113 112 -210 210
c-115 115 -212 210 -215 210 -3 0 -54 -50 -114 -111z"/>
<path d="M2840 1500 l0 -300 160 0 160 0 0 300 0 300 -160 0 -160 0 0 -300z"/>
</g>
</svg>
