<?xml version="1.0" encoding="iso-8859-1"?>
<!-- Generator: Adobe Illustrator 19.0.0, SVG Export Plug-In . SVG Version: 6.00 Build 0)  -->
<svg version="1.1" id="Layer_1" xmlns="http://www.w3.org/2000/svg" xmlns:xlink="http://www.w3.org/1999/xlink" x="0px" y="0px"
	 viewBox="0 0 501.343 501.343" style="enable-background:new 0 0 501.343 501.343;" xml:space="preserve">
<g>
	<g>
		<g>
			<path fill="#fff" d="M394.667,128.133H352c-0.213,0-0.427,0.213-0.64,0c-0.747-0.427-1.707-0.32-2.347,0.32
				c-0.427,0.427-0.96,0.427-1.387,0.64c-0.213,0.107-0.32,0.107-0.427,0.107l-125.76,62.933H10.667
				C4.8,192.133,0,196.933,0,202.799v106.667c0,5.867,4.8,10.667,10.667,10.667h210.347l125.44,52.267h1.493
				c0,0,2.667,1.067,4.16,1.067h42.667c5.867,0,10.667-10.667,10.667-10.667v-224C405.333,132.933,400.533,128.133,394.667,128.133z
				 M213.333,298.799h-192v-85.333h192V298.799z M341.333,346.799l-106.667-44.48v-92.907l106.667-53.333V346.799z M384,352.133
				h-21.333V149.466H384V352.133z"/>
			<path fill="#fff" d="M437.333,256.133h53.013c5.333,0,10.133-3.84,10.88-9.067c0.96-6.613-4.16-12.267-10.56-12.267h-53.013
				c-5.333,0-10.133,3.84-10.88,9.067C425.813,250.479,430.933,256.133,437.333,256.133z"/>
			<path fill="#fff" d="M437.333,192.133c1.92,0,3.84-0.533,5.44-1.493l53.333-32c5.013-2.987,6.72-9.6,3.627-14.613s-9.6-6.72-14.613-3.627
				l-53.333,32c-5.013,2.987-6.72,9.6-3.627,14.613C430.08,190.213,433.6,192.133,437.333,192.133z"/>
			<path fill="#fff" d="M496.107,332.293l-53.333-32c-5.013-2.987-11.627-1.387-14.613,3.627s-1.387,11.627,3.627,14.613l53.333,32
				c5.013,2.987,11.627,1.387,14.613-3.627S501.227,335.386,496.107,332.293z"/>
		</g>
	</g>
</g>
<g>
</g>
<g>
</g>
<g>
</g>
<g>
</g>
<g>
</g>
<g>
</g>
<g>
</g>
<g>
</g>
<g>
</g>
<g>
</g>
<g>
</g>
<g>
</g>
<g>
</g>
<g>
</g>
<g>
</g>
</svg>
