<?xml version="1.0" standalone="no"?>
<!DOCTYPE svg PUBLIC "-//W3C//DTD SVG 20010904//EN"
 "http://www.w3.org/TR/2001/REC-SVG-20010904/DTD/svg10.dtd">
<svg version="1.0" xmlns="http://www.w3.org/2000/svg"
 width="152.000000pt" height="141.000000pt" viewBox="0 0 152.000000 141.000000"
 preserveAspectRatio="xMidYMid meet">

<g transform="translate(0.000000,141.000000) scale(0.100000,-0.100000)"
fill="#fff" stroke="none">
<path d="M643 1220 c-295 -53 -514 -333 -490 -629 8 -87 24 -145 62 -222 43
-86 130 -184 208 -233 29 -19 30 -19 43 -1 8 10 14 21 14 24 0 3 -22 20 -49
37 -90 60 -169 172 -205 293 -21 71 -21 220 0 292 40 135 142 264 260 326 210
112 468 76 634 -88 108 -106 160 -231 160 -384 0 -179 -79 -338 -214 -432 -56
-39 -62 -48 -47 -72 15 -24 51 -2 138 84 66 66 90 97 119 159 70 153 80 298
30 446 -62 182 -207 326 -385 380 -75 24 -205 33 -278 20z"/>
<path d="M667 1080 c-59 -10 -159 -57 -212 -99 -83 -67 -149 -195 -161 -310
-16 -149 69 -323 205 -417 23 -16 25 -16 38 2 17 24 16 25 -37 66 -58 44 -117
128 -137 197 -24 82 -15 212 20 282 36 73 76 120 140 162 202 134 476 59 580
-161 29 -61 32 -75 32 -167 0 -91 -3 -106 -31 -166 -31 -64 -82 -126 -138
-165 -25 -18 -27 -23 -17 -42 6 -12 15 -22 20 -22 5 0 40 29 78 64 80 74 125
159 142 266 37 235 -133 469 -370 509 -73 12 -83 12 -152 1z"/>
<path d="M633 923 c-55 -19 -136 -92 -162 -146 -44 -91 -45 -202 -1 -287 26
-50 105 -124 124 -117 26 10 18 40 -18 69 -18 15 -45 51 -60 79 -101 204 98
430 313 354 66 -23 108 -62 142 -131 27 -54 31 -72 27 -121 -6 -87 -64 -187
-119 -205 -15 -5 6 -48 23 -48 25 0 115 107 131 155 21 61 22 158 1 218 -22
66 -87 134 -159 168 -49 24 -73 29 -130 28 -38 0 -89 -7 -112 -16z"/>
<path d="M669 754 c-49 -32 -74 -100 -58 -159 10 -35 69 -95 94 -95 8 0 15 -4
15 -10 0 -5 11 -10 25 -10 14 0 25 4 25 9 0 5 11 12 24 15 13 3 38 22 55 41
27 31 31 43 31 90 0 49 -4 60 -34 92 -30 33 -39 37 -92 40 -43 3 -66 -1 -85
-13z"/>
</g>
</svg>
